<?xml version="1.0" encoding="iso-8859-1"?>
<!-- Generator: Adobe Illustrator 16.0.0, SVG Export Plug-In . SVG Version: 6.00 Build 0)  -->
<!DOCTYPE svg PUBLIC "-//W3C//DTD SVG 1.1//EN" "http://www.w3.org/Graphics/SVG/1.1/DTD/svg11.dtd">
<svg version="1.1" id="Capa_1" xmlns="http://www.w3.org/2000/svg" xmlns:xlink="http://www.w3.org/1999/xlink" x="0px" y="0px"
	 width="125.075px" height="125.075px" viewBox="0 0 125.075 125.075" style="enable-background:new 0 0 125.075 125.075;"
	 xml:space="preserve">
<g>
	<g>
		<circle cx="62.258" cy="12.942" r="12.942"/>
		<path d="M89.59,65.152c-3.007-20.494-7.557-29.271-18.726-36.117c-0.217-0.133-0.444-0.229-0.672-0.326
			c-1.441-0.961-3.06-1.668-4.711-2.074l-3.224,3.246L59.132,26.6c-0.011,0.002-0.021,0.004-0.032,0.006
			c-2.392,0.572-4.717,1.785-6.534,3.488c-9.979,6.711-14.228,15.603-17.081,35.058c-0.403,2.744,1.497,5.297,4.242,5.699
			c0.248,0.035,0.493,0.055,0.736,0.055c2.452,0,4.599-1.799,4.965-4.297c1.026-6.998,2.214-12.111,3.583-15.978v5.869h-0.015
			L44.213,93.36l5.462,0.008l0.001,25.771c0,3.278,2.659,5.936,5.939,5.936c3.279,0,5.938-2.658,5.938-5.938l-0.001-25.755h0.844
			l-0.002,25.755c0,3.279,2.658,5.938,5.938,5.938l0,0c3.279,0,5.938-2.658,5.938-5.938l0.001-25.738l6.561,0.009l-5.328-36.695
			v-7.563c1.607,4.012,2.979,9.527,4.143,17.461c0.367,2.497,2.513,4.297,4.965,4.297c0.243,0,0.488-0.021,0.736-0.056
			C88.093,70.449,89.991,67.896,89.59,65.152z"/>
	</g>
</g>
</svg>
